<?xml version="1.0" standalone="no"?><!DOCTYPE svg PUBLIC "-//W3C//DTD SVG 1.1//EN" "http://www.w3.org/Graphics/SVG/1.1/DTD/svg11.dtd"><svg t="1734869454847" class="icon" viewBox="0 0 1024 1024" version="1.1" xmlns="http://www.w3.org/2000/svg" p-id="1537" xmlns:xlink="http://www.w3.org/1999/xlink" width="200" height="200"><path d="M634.5728 16.5888A358.8608 358.8608 0 0 0 526.6432 0a356.7104 356.7104 0 0 0-273.6128 127.488l168.704 141.9264L634.5728 16.5888z" fill="#1A73E8" p-id="1538"></path><path d="M252.9792 127.5392a356.2496 356.2496 0 0 0-83.6608 229.5808c0 67.072 13.3632 121.6512 35.3792 170.3424l217.088-258.048L252.928 127.488z" fill="#EA4335" p-id="1539"></path><path d="M526.6432 220.672a136.7552 136.7552 0 0 1 104.2944 224.9728l212.5824-252.8256A357.376 357.376 0 0 0 634.368 16.7936L421.9392 269.6192a136.3968 136.3968 0 0 1 104.704-48.896z" fill="#4285F4" p-id="1540"></path><path d="M526.6432 493.9264a136.704 136.704 0 0 1-136.6528-136.6016 135.68 135.68 0 0 1 31.9488-87.7056l-217.2416 258.048c37.1712 82.2784 98.816 148.3264 162.304 231.5776l263.8848-313.6a136.0896 136.0896 0 0 1-104.2432 48.2816z" fill="#FBBC04" p-id="1541"></path><path d="M625.664 844.8c119.296-186.368 258.048-271.0528 258.048-487.68 0-59.392-14.5408-115.4048-40.192-164.7104L367.2064 759.2448c20.1728 26.4704 40.6016 54.5792 60.416 85.7088C499.968 956.928 479.9488 1024 526.6432 1024c46.6944 0 26.6752-67.2768 99.0208-179.2z" fill="#34A853" p-id="1542"></path></svg>