<?xml version="1.0" standalone="no"?><!DOCTYPE svg PUBLIC "-//W3C//DTD SVG 1.1//EN" "http://www.w3.org/Graphics/SVG/1.1/DTD/svg11.dtd"><svg t="1734869840213" class="icon" viewBox="0 0 1024 1024" version="1.1" xmlns="http://www.w3.org/2000/svg" p-id="3537" xmlns:xlink="http://www.w3.org/1999/xlink" width="200" height="200"><path d="M183.296 197.12S204.8 234.496 217.088 276.48c12.288 41.984 17.92 73.216 17.92 73.216s-15.872 36.352-23.552 70.656C203.264 454.656 195.072 486.4 195.072 486.4s16.384 45.568 26.624 86.016 10.752 69.632 10.752 69.632-11.264 29.184-21.504 69.632-14.848 87.04-14.848 87.04 26.624-0.512 81.408 8.704 92.16 12.288 92.16 12.288 36.352-7.68 68.608-17.92 46.592-18.432 46.592-18.432 15.872 1.536 64.512 17.92 83.968 24.576 83.968 24.576 37.376-7.68 74.24-16.384c37.376-8.704 75.776-23.04 75.776-23.04s-2.048-14.336 12.288-70.144c14.336-55.808 25.088-80.384 25.088-80.384s-1.536-12.8-10.752-56.32-28.672-84.992-28.672-84.992 5.12-30.208 19.456-68.096 29.184-76.8 29.184-76.8-13.824-43.52-21.504-84.992-23.552-73.728-23.552-73.728-69.632 25.6-91.136 30.208c-21.504 4.096-59.904 14.848-59.904 14.848s-28.16-12.288-62.976-24.576S486.4 195.584 486.4 195.584s-9.216 10.24-62.976 23.04-78.848 16.384-78.848 16.384-52.736-25.6-90.112-32.768c-37.376-7.68-69.12-6.144-71.168-5.12z" fill="#CEEEAB" p-id="3538"></path><path d="M490.496 196.096l-25.6 15.36c-2.048 25.6-9.728 25.6-27.648 33.28s-35.328 10.24-31.744 21.504c3.584 11.264 37.376 26.624 40.96 37.376s23.552 5.12 31.744 19.968c7.68 14.848 5.632 43.52-10.752 49.152s-50.176 1.536-57.856 27.136-13.824 30.208-25.6 36.352c-12.288 6.656-20.992 30.208-10.24 47.104s35.328-3.584 43.008-18.432 20.992-25.088 20.992-25.088h68.096l168.96-5.12 9.216-10.752s9.216 11.264 7.68 25.088c-1.536 13.824-10.752 41.984 0.512 49.152 11.264 7.168 55.808-5.632 68.608-19.968s-13.824-80.896-30.208-84.48-52.736-5.12-48.64-19.968 33.792 12.8 49.152 9.216c15.872-3.584 48.128-59.904 34.304-72.192s-69.632-14.848-73.728-23.04 59.904-23.04 63.488-31.744-7.168-20.992-17.92-24.576-39.936 46.592-59.904 45.056c-19.968-1.536-57.344 16.384-49.152 32.768 7.68 16.384-17.408 31.744-41.472 18.432-24.576-12.8-70.656-37.376-62.464-68.608s52.736-41.472 52.736-41.472l-86.528-21.504zM435.712 484.864c-4.608 0.512-12.8 13.312-14.336 19.968-1.536 7.168-9.216 19.456-10.24 35.328-0.512 15.872 13.824 19.456 25.088 18.432 11.264-0.512 7.68-19.456 5.632-43.008-0.512 0-1.536-29.184-6.144-30.72 1.024 0 0.512-0.512 0 0z m265.728 147.456c-17.92 1.024-18.944 21.504-20.992 25.6-3.584 6.656 6.656 39.424 5.632 51.712s-13.824 14.848-27.136 28.16c-13.824 12.8-6.144 29.184 24.576 72.192l94.72-23.552 5.632-47.616s0-53.248-27.136-78.848c-27.136-21.504-44.544-28.16-55.296-27.648z m-429.568 47.616c-11.776-0.512-23.552 16.384-27.648 21.504-4.096 5.632-3.584 12.8-34.304 25.6l-13.824 71.68 144.896 9.216s-30.208-0.512-47.616-13.824c-17.408-13.824-49.152-16.384-52.224-37.888s26.624-28.672 39.424-40.96 5.632-32.256-6.656-35.328h-2.048z" fill="#A6DD8B" p-id="3539"></path><path d="M611.84 406.016c-13.824 0-25.6 2.56-32.768 9.216-23.04 19.968-100.352 2.048-138.752 19.968s-37.888 109.056-41.984 127.488c-4.096 18.432-50.176 59.392-57.344 67.072s-37.888 20.992-55.808 24.576c-17.92 3.584-36.352 20.992-44.544 31.744-5.632 7.68-20.992 18.432-29.184 23.552 0 0.512 0 1.024-0.512 1.536-0.512 1.536-0.512 3.072-1.024 4.608 14.336-4.608 32.256-23.552 47.616-38.912 17.92-17.92 57.344-22.016 79.36-32.768s40.96-56.32 75.776-68.096 60.928 33.792 69.632 52.736 5.12 36.352 10.752 48.64 31.744 33.792 32.768 38.4c1.536 5.12-14.336 18.432-17.92 24.576s-30.208 19.968-33.792 25.088c-2.56 4.096-5.632 19.456-6.656 26.624l3.072-1.536c1.536-7.168 4.608-20.48 8.192-24.576 5.632-5.632 32.256-12.8 35.84-24.576s19.968-18.432 19.968-18.432 7.68 11.264 45.568 39.936c25.088 18.944 36.352 44.544 41.472 59.392 2.048 0.512 4.608 1.024 5.632 1.536-3.584-12.288-13.824-46.592-25.6-59.392-14.336-15.872-52.736-30.72-65.024-62.976-12.288-32.256-70.144-98.304-50.176-115.2s47.104-11.264 81.408 21.504c34.304 32.768 132.608 16.384 165.376 10.752 28.672-5.12 54.272 42.496 63.488 74.752 1.536-6.144 3.072-11.264 4.608-16.384-5.12-5.632-5.632-13.312-10.24-23.552-10.752-24.576-34.304-37.888-34.304-37.888s25.088-14.336 41.984-22.016c4.608-2.048 8.704-4.608 11.776-7.68-0.512-2.048-0.512-3.584-1.024-6.144 0-0.512 0-1.024-0.512-1.024-13.824 15.872-55.296 27.648-61.952 31.232-7.68 4.096-52.224 8.704-102.4 12.8s-76.8-21.504-98.304-41.984-37.376-102.912-8.704-109.056 57.344 39.424 86.016 48.64 61.44-45.056 56.32-77.312c-1.536-22.528-38.4-36.352-68.096-36.864z m-153.088 38.4c3.584 0 16.896 4.608 18.944 6.656 6.656 7.168 5.632 20.992 0 23.04s-36.352 23.04-30.208 40.96c6.656 17.92 5.12 51.712-10.24 51.712s-23.04 0-28.672-7.168-5.632-34.304 0-56.32 10.24-43.008 23.04-52.224c9.216-7.168 18.944-6.656 27.136-6.656z m38.912 208.896c0.512 0 5.632 10.24 13.312 19.968 8.704 10.752 9.216 23.552 9.216 23.552s-12.288-13.824-17.408-23.04c-4.608-8.704-5.12-19.968-5.12-20.48z" fill="#AAC3E7" p-id="3540"></path><path d="M294.912 841.728L281.6 855.04c-14.336-15.36-29.184-30.72-43.008-46.08l12.8-11.776c19.456 18.432 25.088 24.064 43.52 44.544z" fill="#FFE633" p-id="3541"></path><path d="M515.584 576c-77.824-77.824-77.824-203.776 0-281.6s203.776-77.824 281.6 0 77.824 203.776 0 281.6-203.776 77.824-281.6 0z m8.704-8.192c74.752 74.752 193.024 77.312 267.776 3.072 74.752-74.752 71.68-193.024-2.56-267.776-74.752-74.752-193.024-77.312-267.776-3.072-75.264 74.752-72.192 193.024 2.56 267.776z" fill="#161616" p-id="3542"></path><path d="M489.984 520.704l-16.384 11.776c9.216 17.92 21.504 34.304 36.864 49.664 14.848 14.848 31.744 27.136 49.664 36.864l11.776-16.384c-16.896-8.704-32.768-19.968-47.104-34.304-14.848-14.848-26.112-30.72-34.816-47.616z" fill="#161616" p-id="3543"></path><path d="M515.072 577.024c5.12 5.12 8.704 10.752 11.776 16.384l-75.264 75.264c-5.632-3.072-11.264-6.656-16.384-11.776s-8.704-10.752-11.776-16.384l75.264-75.264c5.632 2.56 11.264 6.656 16.384 11.776z" fill="#161616" p-id="3544"></path><path d="M490.496 646.656l-188.928 188.928c-11.264-6.144-16.896-8.704-26.624-18.432-9.728-9.728-12.288-15.36-18.432-26.624l188.928-189.44c14.336 10.752 34.816 30.208 45.056 45.568z" fill="#FFE633" p-id="3545"></path><path d="M460.8 631.808c9.728 9.728 21.504 18.944 24.576 31.744L302.08 846.848c-18.432-14.848-41.472-36.864-56.32-56.32l183.296-183.296c9.728 0.512 21.504 14.336 31.744 24.576z" fill="#161616" p-id="3546"></path></svg>